_________________________  Visit us at _________________________
  
http://p2pdl.com  ____________________________  http://p2pdl.com


186 Dollars To Freedom 2012 BRRip 720p x264 AAC - PRiSTiNE

Genre: Action | Drama
Plot: A young California surfer has to grow up 
in a hurry when he is thrown into a Peruvian 
political prison in 1980.
Director: Camilo Vila
Stars: John Robinson, Michael DeLorenzo, Alex Meraz
Rated: Rated PG-13 for sex related dialogue and some teen use of alcohol and drugs

Info: 
http://www.imdb.com/title/tt1652361/

General
Complete name                  : 186 Dollars To Freedom 2012 BRRip 720p x264 AAC - PRiSTiNE.mp4
Format                         : MPEG-4
Format profile                 : Base Media
File size                      : 578 MiB
Duration                       : 1h 38mn
Overall bit rate mode          : Variable
Overall bit rate               : 822 Kbps

Source                         : 720p BluRay BRMP (Thanks)

Video
Format                         : AVC
Format profile                 : High@L4.1
Format settings, CABAC         : Yes
Codec ID/Info                  : Advanced Video Coding
Duration                       : 1h 38mn
Bit rate                       : 735 Kbps
Width                          : 1 280 pixels
Height                         : 720 pixels
Display aspect ratio           : 16:9
Frame rate mode                : Constant
Frame rate                     : 23.976 fps
Bit depth                      : 8 bits
Stream size                    : 517 MiB (89%)
Writing library                : x264 core 129 r2245 bc13772

Audio
Format                         : AAC
Format/Info                    : Advanced Audio Codec
Bit rate mode                  : Variable
Bit rate                       : 83.9 Kbps
Channel(s)                     : 2 channels
Channel positions              : Front: L R
Sampling rate                  : 48.0 KHz / 24.0 KHz
Stream size                    : 59.0 MiB (10%)

Subtitle                       : No

Screens: 
http://imgr.us/images/yzhg39rbkgnrap2o9j6y.jpg 
http://imgr.us/images/2aavr2iyd7l6hvvotu9.jpg 
http://imgr.us/images/qw1q6d8r8dnhil8joylk.jpg 
http://imgr.us/images/p3b9mpzb0d4ve053gs9d.jpg

----------------------------------------------------------------------------------------------------
Encoded using revolutionary 10bit encoding, which enables us to provide you more crispier 
and sharper images at small sizes, just make sure you follow our instructions without a fault.
Recommend to you to use latest version of VLC player. Install K-Lite Codec Pack or shark007 codecs
in case of any kind of problem in playback (For non-VLC Media Player users). Alternatively, install
Core AVC codecs, the fastest decoder that there is coupled with Community Center Codec Pack and play
on Windows Media Player Classic. Check sample to be sure.
Enjoy!

Encoder Notes: Looking For Early Access To Anything You Can Provide DVDScr, R5, DVDR, BluRay, Direct
Audio, Music Releases and Seedboxes. We require dedicated servers, so as to do more 
and fast releases of movies.
If You Got anything to offer please contact us at "prg@hush.com".